<?xml version="1.0" encoding="UTF-8"?><svg id="_イヤー_1" xmlns="http://www.w3.org/2000/svg" viewBox="0 0 30.21 30"><defs><style>.cls-1{fill:#fff;font-family:Silom, Silom;font-size:16.24px;}</style></defs><g><path d="M15.1,29.5C7.05,29.5,.5,23,.5,15S7.05,.5,15.1,.5s14.6,6.5,14.6,14.5-6.55,14.5-14.6,14.5Z"/><path d="M15.1,1c7.78,0,14.1,6.28,14.1,14s-6.33,14-14.1,14S1,22.72,1,15,7.33,1,15.1,1m0-1C6.76,0,0,6.72,0,15s6.76,15,15.1,15,15.1-6.72,15.1-15S23.45,0,15.1,0h0Z"/></g><text class="cls-1" transform="translate(10.74 21.7)"><tspan x="0" y="0">F</tspan></text></svg>